#!OML:ASF H:\MichaelJackson\Top Level 1\Subject 1\Session 1\male.ASF
:FULLY-SPECIFIED
:DEGREES
586
root 7.29354 16.5082 -5.19316 -96.1556 89.6539 -102.043
lowerback 7.34639 -0.346043 -3.53933
upperback 1.42262 -0.694891 0.155561
thorax -2.6026 -0.304569 2.21436
lowerneck -8.18038 -9.19196 0.302519
upperneck 14.0305 -12.6044 1.36648
head 5.65128 -5.9807 -0.532144
rclavicle 6.95746e-015 -3.57812e-015
rhumerus -35.1626 18.3726 -83.8006
rradius 111.68
rwrist -4.18973
rhand 57.8159 -23.3469
rfingers 7.12502
rthumb 73.9858 361.606
lclavicle 6.95746e-015 -3.57812e-015
lhumerus -39.7205 -27.6844 95.7297
lradius 55.5066
lwrist 21.0543
lhand -15.7139 3.84965
lfingers 7.12502
lthumb 10.4762 33.5686
rfemur -58.2572 3.83503 18.9887
rtibia 86.208
rfoot 12.4492 1.74834
rtoes -18.8919
lfemur -28.8332 -10.7456 -19.2508
ltibia 47.0675
lfoot -24.3561 -15.8721
ltoes 9.09851
587
root 7.39139 16.4942 -5.1563 -161.764 88.7572 -167.431
lowerback 7.534 -0.211405 -3.55975
upperback 1.52574 -0.516938 0.249594
thorax -2.61062 -0.215501 2.30772
lowerneck -8.15554 -9.38217 0.0620521
upperneck 14.3012 -12.8413 1.43217
head 5.75363 -6.09384 -0.50184
rclavicle 1.83876e-015 2.38542e-015
rhumerus -34.9745 18.3887 -85.4214
rradius 112.575
rwrist -5.39901
rhand 56.804 -23.1687
rfingers 7.12502
rthumb 73.6121 358.547
lclavicle 1.83876e-015 2.38542e-015
lhumerus -39.795 -27.5029 96.134
lradius 55.2672
lwrist 20.7375
lhand -15.7232 3.78314
lfingers 7.12502
lthumb 10.4671 33.5026
rfemur -58.7074 4.73166 18.3295
rtibia 84.1719
rfoot 11.93 2.69791
rtoes -18.345
lfemur -28.4114 -11.0302 -19.4327
ltibia 47.4289
lfoot -24.6151 -15.9704
ltoes 9.77031
588
root 7.48786 16.4802 -5.12002 -169.494 87.6467 -174.952
lowerback 7.73123 -0.0733257 -3.592
upperback 1.6266 -0.334945 0.366751
thorax -2.62695 -0.124075 2.43075
lowerneck -8.12484 -9.56842 -0.177376
upperneck 14.6082 -13.0715 1.48713
head 5.86655 -6.2032 -0.475749
rclavicle 4.42296e-015 -1.13307e-014
rhumerus -34.6074 18.1632 -86.8558
rradius 113.47
rwrist -6.52866
rhand 54.1684 -22.7318
rfingers 7.12502
rthumb 72.4074 351.3
lclavicle 4.42296e-015 -1.13307e-014
lhumerus -39.8724 -27.2391 96.5281
lradius 55.0103
lwrist 20.401
lhand -15.7496 3.72832
lfingers 7.12502
lthumb 10.4417 33.449
rfemur -59.06 5.59947 17.6034
rtibia 82.0558
rfoot 11.6201 3.46056
rtoes -17.81
lfemur -28.0209 -11.3025 -19.5617
ltibia 47.7925
lfoot -24.8838 -16.2439
ltoes 10.4185
589
root 7.58265 16.4661 -5.08388 -172.216 86.5041 -177.486
lowerback 7.92725 0.0507613 -3.63819
upperback 1.72266 -0.171784 0.512744
thorax -2.64687 -0.0417354 2.59276
lowerneck -8.0881 -9.74634 -0.418883
upperneck 14.9538 -13.2896 1.53692
head 5.9913 -6.30569 -0.451366
rclavicle -9.51682e-015 -3.37934e-015
rhumerus -34.0818 17.81 -88.116
rradius 114.342
rwrist -7.48437
rhand 50.1443 -21.9972
rfingers 7.12502
rthumb 70.0458 342.414
lclavicle -9.51682e-015 -3.37934e-015
lhumerus -39.9628 -26.8638 96.9073
lradius 54.7526
lwrist 20.0403
lhand -15.8363 3.68447
lfingers 7.12502
lthumb 10.3581 33.4094
rfemur -59.3297 6.40984 16.8288
rtibia 79.8736
rfoot 11.5442 3.9992
rtoes -17.3
lfemur -27.7082 -11.5648 -19.6259
ltibia 48.1979
lfoot -25.1241 -16.75
ltoes 11.0967
590
root 7.67515 16.4519 -5.04777 -173.335 85.3115 -178.442
lowerback 8.12978 0.147698 -3.67566
upperback 1.81516 -0.0430777 0.690885
thorax -2.67243 0.0236879 2.78629
lowerneck -8.05944 -9.91523 -0.659446
upperneck 15.3408 -13.4966 1.59051
head 6.13168 -6.40072 -0.427381
rclavicle 1.80024e-014 2.18663e-015
rhumerus -33.4077 17.4221 -89.2255
rradius 115.17
rwrist -8.25114
rhand 45.0653 -21.1807
rfingers 7.12502
rthumb 66.4366 334.232
lclavicle 1.80024e-014 2.18663e-015
lhumerus -40.0714 -26.3892 97.2628
lradius 54.5195
lwrist 19.6889
lhand -15.9958 3.65944
lfingers 7.12502
lthumb 10.2042 33.392
rfemur -59.5186 7.13708 16.038
rtibia 77.636
rfoot 11.6819 4.35198
rtoes -16.8792
lfemur -27.511 -11.818 -19.611
ltibia 48.6944
lfoot -25.2849 -17.4894
ltoes 11.8449
591
root 7.76512 16.4377 -5.01224 -173.699 84.0561 -178.664
lowerback 8.34112 0.211336 -3.67588
upperback 1.90814 0.0457272 0.897761
thorax -2.70009 0.0692975 2.99258
lowerneck -8.04517 -10.08 -0.898835
upperneck 15.7609 -13.7001 1.65492
head 6.28684 -6.49158 -0.402422
rclavicle 1.40003e-015 9.72181e-016
rhumerus -32.6086 17.0765 -90.2011
rradius 115.947
rwrist -8.88024
rhand 39.2088 -20.3801
rfingers 7.12502
rthumb 61.7361 327.801
lclavicle 1.40003e-015 9.72181e-016
lhumerus -40.1983 -25.8386 97.5914
lradius 54.3275
lwrist 19.3733
lhand -16.2526 3.6536
lfingers 7.12502
lthumb 9.9565 33.3981
rfemur -59.6241 7.77326 15.2398
rtibia 75.3542
rfoot 11.9924 4.52755
rtoes -16.3202
lfemur -27.4532 -12.0565 -19.5278
ltibia 49.3292
lfoot -25.2976 -18.4279
ltoes 12.7639
592
root 7.85214 16.4225 -4.9773 -173.665 82.7292 -178.501
lowerback 8.57495 0.24284 -3.62408
upperback 2.00582 0.0975979 1.12822
thorax -2.73282 0.0966624 3.19799
lowerneck -8.04873 -10.2476 -1.13429
upperneck 16.2024 -13.9118 1.73943
head 6.4545 -6.58312 -0.374888
rclavicle -7.70291e-015 4.96962e-016
rhumerus -31.7136 16.8243 -91.0373
rradius 116.691
rwrist -9.44073
rhand 32.8234 -19.6451
rfingers 7.12502
rthumb 56.2258 323.142
lclavicle -7.70291e-015 4.96962e-016
lhumerus -40.3441 -25.2512 97.8913
lradius 54.1941
lwrist 19.112
lhand -16.5846 3.68024
lfingers 7.12502
lthumb 9.63618 33.4398
rfemur -59.6417 8.30634 14.4542
rtibia 73.0415
rfoot 12.386 4.61596
rtoes -15.7221
lfemur -27.544 -12.2667 -19.3967
ltibia 50.14
lfoot -25.1065 -19.4883
ltoes 13.8638
593
root 7.93656 16.4055 -4.94339 -173.393 81.3463 -178.086
lowerback 8.84784 0.248807 -3.51874
upperback 2.11894 0.122573 1.39256
thorax -2.76904 0.110923 3.4116
lowerneck -8.06968 -10.4223 -1.37576
upperneck 16.6442 -14.1342 1.83656
head 6.62825 -6.67842 -0.345212
rclavicle 1.21756e-015 -8.34896e-015
rhumerus -30.7169 16.7112 -91.7401
rradius 117.38
rwrist -9.9723
rhand 26.1834 -18.9799
rfingers 7.12502
rthumb 50.2453 319.927
lclavicle 1.21756e-015 -8.34896e-015
lhumerus -40.5071 -24.6436 98.1826
lradius 54.1299
lwrist 18.9298
lhand -17.0197 3.72603
lfingers 7.12502
lthumb 9.21635 33.5046
rfemur -59.5473 8.76539 13.6893
rtibia 70.7123
rfoot 12.7586 4.65905
rtoes -15.0491
lfemur -27.7512 -12.4265 -19.2435
ltibia 51.1406
lfoot -24.7068 -20.529
ltoes 15.0156
594
root 8.01866 16.3856 -4.91057 -172.973 79.9273 -177.494
lowerback 9.15765 0.242989 -3.33967
upperback 2.26011 0.141962 1.67731
thorax -2.796 0.122443 3.60574
lowerneck -8.10138 -10.6111 -1.60457
upperneck 17.0588 -14.3804 1.95338
head 6.7977 -6.78306 -0.3139
rclavicle 1.97294e-014 4.77083e-015
rhumerus -29.6213 16.7104 -92.283
rradius 118.056
rwrist -10.5842
rhand 19.5603 -18.4063
rfingers 7.12502
rthumb 44.1252 317.758
lclavicle 1.97294e-014 4.77083e-015
lhumerus -40.6802 -24.0773 98.4596
lradius 54.1365
lwrist 18.8555
lhand -17.5583 3.77597
lfingers 7.12502
lthumb 8.69658 33.5768
rfemur -59.3347 9.18579 12.9566
rtibia 68.383
rfoot 13.0324 4.72273
rtoes -14.4354
lfemur -28.0388 -12.522 -19.0837
ltibia 52.3193
lfoot -24.1222 -21.4348
ltoes 16.1737
595
root 8.09926 16.3619 -4.87884 -172.461 78.503 -176.761
lowerback 9.5019 0.227324 -3.10844
upperback 2.43142 0.158549 2.00219
thorax -2.81022 0.133025 3.81301
lowerneck -8.11274 -10.805 -1.84705
upperneck 17.4249 -14.6311 2.07393
head 6.95101 -6.89169 -0.277819
rclavicle 1.22253e-014 -8.34896e-015
rhumerus -28.4307 16.8593 -92.642
rradius 118.738
rwrist -11.3644
rhand 13.2073 -17.9397
rfingers 7.12502
rthumb 38.1616 316.305
lclavicle 1.22253e-014 -8.34896e-015
lhumerus -40.8752 -23.516 98.7451
lradius 54.2157
lwrist 18.8845
lhand -18.1661 3.8167
lfingers 7.12502
lthumb 8.11001 33.6411
rfemur -58.9958 9.60955 12.267
rtibia 66.0707
rfoot 13.1791 4.80929
rtoes -13.8223
lfemur -28.3496 -12.5356 -18.9262
ltibia 53.6367
lfoot -23.4448 -22.0938
ltoes 17.1711
596
root 8.17991 16.3337 -4.84847 -171.931 77.1178 -175.942
lowerback 9.85881 0.229031 -2.81062
upperback 2.65304 0.210944 2.33876
thorax -2.78195 0.161412 3.99066
lowerneck -8.11139 -11.0134 -2.04943
upperneck 17.7275 -14.9065 2.19834
head 7.08084 -7.01132 -0.246368
rclavicle -2.54444e-014 1.55052e-014
rhumerus -27.1251 17.0842 -92.8077
rradius 119.459
rwrist -12.4196
rhand 7.35013 -17.5928
rfingers 7.12502
rthumb 32.6089 315.325
lclavicle -2.54444e-014 1.55052e-014
lhumerus -41.0777 -23.0436 99.0215
lradius 54.3549
lwrist 19.0213
lhand -18.813 3.83258
lfingers 7.12502
lthumb 7.48566 33.6801
rfemur -58.5279 10.0917 11.6155
rtibia 63.7955
rfoot 13.1715 4.9231
rtoes -13.3972
lfemur -28.612 -12.4586 -18.7817
ltibia 55.0369
lfoot -22.7885 -22.4509
ltoes 17.9309
597
root 8.26168 16.3003 -4.81916 -171.444 75.8097 -175.102
lowerback 10.1975 0.258632 -2.46691
upperback 2.92784 0.311443 2.67669
thorax -2.69213 0.213838 4.13754
lowerneck -8.08369 -11.2321 -2.20517
upperneck 17.965 -15.2015 2.32345
head 7.18308 -7.13949 -0.219974
rclavicle 3.39922e-014 4.8901e-014
rhumerus -25.6738 17.3473 -92.795
rradius 120.225
rwrist -13.826
rhand 2.20104 -17.401
rfingers 7.12502
rthumb 27.6968 314.619
lclavicle 3.39922e-014 4.8901e-014
lhumerus -41.2914 -22.6684 99.2816
lradius 54.5457
lwrist 19.2574
lhand -19.4619 3.81585
lfingers 7.12502
lthumb 6.8593 33.6847
rfemur -57.9515 10.6636 10.9961
rtibia 61.5776
rfoot 13.0423 5.06683
rtoes -13.2424
lfemur -28.7784 -12.2855 -18.6525
ltibia 56.457
lfoot -22.2683 -22.5161
ltoes 18.4163
598
root 8.34545 16.2613 -4.791 -171.044 74.6015 -174.297
lowerback 10.491 0.324258 -2.093
upperback 3.2493 0.468014 3.00404
thorax -2.53326 0.294632 4.24868
lowerneck -8.02095 -11.4604 -2.31421
upperneck 18.1538 -15.5151 2.45071
head 7.26134 -7.27518 -0.197934
rclavicle 7.21588e-014 -5.4467e-014
rhumerus -24.0717 17.6042 -92.5883
rradius 121.054
rwrist -15.641
rhand -2.11429 -17.3877
rfingers 7.12502
rthumb 23.5638 314.036
lclavicle 7.21588e-014 -5.4467e-014
lhumerus -41.5258 -22.4026 99.5251
lradius 54.772
lwrist 19.5737
lhand -20.0873 3.76632
lfingers 7.12502
lthumb 6.25554 33.654
rfemur -57.2995 11.327 10.4016
rtibia 59.4433
rfoot 12.8631 5.22777
rtoes -13.3597
lfemur -28.8243 -12.0278 -18.5369
ltibia 57.8473
lfoot -21.9716 -22.3463
ltoes 18.6349
599
root 8.43224 16.2165 -4.76404 -170.815 73.5051 -173.643
lowerback 10.7019 0.424512 -1.73398
upperback 3.60234 0.671217 3.30648
thorax -2.29956 0.399181 4.33603
lowerneck -7.92332 -11.6893 -2.36581
upperneck 18.3222 -15.8355 2.57119
head 7.32268 -7.41159 -0.183988
rclavicle -2.26615e-014 -3.57812e-014
rhumerus -22.3276 17.8287 -92.2008
rradius 121.952
rwrist -17.8706
rhand -5.5952 -17.5452
rfingers 7.12502
rthumb 20.2215 313.487
lclavicle -2.26615e-014 -3.57812e-014
lhumerus -41.7938 -22.2222 99.7423
lradius 55.0178
lwrist 19.9428
lhand -20.6673 3.68301
lfingers 7.12502
lthumb 5.69558 33.5865
rfemur -56.6182 12.0653 9.79685
rtibia 57.4219
rfoot 12.7201 5.39561
rtoes -13.6149
lfemur -28.757 -11.7088 -18.4513
ltibia 59.1759
lfoot -21.9367 -22.0201
ltoes 18.6552
600
root 8.52185 16.1649 -4.73773 -170.792 72.4948 -173.214
lowerback 10.8245 0.547848 -1.43781
upperback 3.96041 0.897964 3.58752
thorax -2.01405 0.516081 4.43437
lowerneck -7.79816 -11.9108 -2.37746
upperneck 18.5073 -16.1481 2.67799
head 7.38064 -7.54185 -0.177848
rclavicle 7.35503e-015 2.38542e-015
rhumerus -20.4425 18.0016 -91.6553
rradius 122.897
rwrist -20.4213
rhand -8.33124 -17.9348
rfingers 7.12502
rthumb 17.5901 312.841
lclavicle 7.35503e-015 2.38542e-015
lhumerus -42.1068 -22.0984 99.9377
lradius 55.2718
lwrist 20.3421
lhand -21.1596 3.58133
lfingers 7.12502
lthumb 5.22023 33.497
rfemur -55.9582 12.8283 9.15847
rtibia 55.5503
rfoot 12.6981 5.57616
rtoes -13.9506
lfemur -28.6223 -11.3674 -18.3995
ltibia 60.4416
lfoot -22.1489 -21.6229
ltoes 18.5594
